<svg width="84" height="54" viewBox="0 0 84 54" fill="none" xmlns="http://www.w3.org/2000/svg">
<path d="M57.2727 23.1429C63.6109 23.1429 68.6891 17.9743 68.6891 11.5714C68.6891 5.16857 63.6109 0 57.2727 0C50.9345 0 45.8182 5.16857 45.8182 11.5714C45.8182 17.9743 50.9345 23.1429 57.2727 23.1429ZM26.7273 23.1429C33.0655 23.1429 38.1436 17.9743 38.1436 11.5714C38.1436 5.16857 33.0655 0 26.7273 0C20.3891 0 15.2727 5.16857 15.2727 11.5714C15.2727 17.9743 20.3891 23.1429 26.7273 23.1429ZM26.7273 30.8571C17.8309 30.8571 0 35.37 0 44.3571V50.1429C0 52.2643 1.71818 54 3.81818 54H49.6364C51.7364 54 53.4545 52.2643 53.4545 50.1429V44.3571C53.4545 35.37 35.6236 30.8571 26.7273 30.8571ZM57.2727 30.8571C56.1655 30.8571 54.9055 30.9343 53.5691 31.05C53.6455 31.0886 53.6836 31.1657 53.7218 31.2043C58.0745 34.4057 61.0909 38.6871 61.0909 44.3571V50.1429C61.0909 51.4929 60.8236 52.8043 60.4036 54H80.1818C82.2818 54 84 52.2643 84 50.1429V44.3571C84 35.37 66.1691 30.8571 57.2727 30.8571Z" fill="#2C442F"/>
</svg>
