<svg width="69" height="61" viewBox="0 0 69 61" fill="none" xmlns="http://www.w3.org/2000/svg">
<path d="M35.4089 0.201408C35.1239 0.0687409 34.8133 0 34.499 0C34.1846 0 33.874 0.0687409 33.589 0.201408L1.24429 15.2956C0.863409 15.4734 0.542791 15.7586 0.321867 16.1162C0.100943 16.4738 -0.0106539 16.8881 0.000801168 17.3083C0.0122563 17.7285 0.146264 18.1362 0.386343 18.4812C0.626422 18.8262 0.962104 19.0935 1.35211 19.2503L33.6968 32.1882C34.2117 32.3945 34.7863 32.3945 35.3011 32.1882L60.3747 22.1656V47.4376C59.231 47.4376 58.134 47.892 57.3253 48.7008C56.5165 49.5095 56.0621 50.6065 56.0621 51.7503V60.3755H69V51.7503C69 50.6065 68.5456 49.5095 67.7369 48.7008C66.9281 47.892 65.8312 47.4376 64.6874 47.4376V20.4363L67.6458 19.2503C68.0358 19.0935 68.3715 18.8262 68.6116 18.4812C68.8517 18.1362 68.9857 17.7285 68.9971 17.3083C69.0086 16.8881 68.897 16.4738 68.6761 16.1162C68.4551 15.7586 68.1345 15.4734 67.7537 15.2956L35.4089 0.201408Z" fill="#2C442F"/>
<path d="M18.0072 30.3252C17.7296 30.2206 17.4333 30.1744 17.137 30.1895C16.8406 30.2047 16.5506 30.2808 16.2851 30.4132C16.0195 30.5456 15.7842 30.7313 15.5937 30.9588C15.4032 31.1863 15.2618 31.4507 15.1781 31.7354L13.0218 39.0669C12.8708 39.5815 12.917 40.1341 13.1514 40.6165C13.3859 41.099 13.7917 41.4767 14.2897 41.676L33.6966 49.4387C34.2114 49.6451 34.786 49.6451 35.3009 49.4387L54.7077 41.676C55.2057 41.4767 55.6115 41.099 55.846 40.6165C56.0804 40.1341 56.1266 39.5815 55.9756 39.0669L53.8193 31.7354C53.7357 31.4507 53.5942 31.1863 53.4037 30.9588C53.2133 30.7313 52.9779 30.5456 52.7123 30.4132C52.4468 30.2808 52.1568 30.2047 51.8605 30.1895C51.5641 30.1744 51.2679 30.2206 50.9902 30.3252L34.4987 36.5095L18.0072 30.3252Z" fill="#2C442F"/>
</svg>
