<svg width="68" height="64" viewBox="0 0 68 64" fill="none" xmlns="http://www.w3.org/2000/svg">
<path d="M11.5813 0L8.19328 3.38319L13.2344 8.42188L16.6176 5.03869L11.5813 0ZM55.7961 0L50.755 5.03869L54.1406 8.42188L59.1793 3.38559L55.7961 0ZM33.6875 1.5015C32.8934 1.50792 32.0914 1.55925 31.2812 1.6555H31.2091C21.4493 2.77441 13.6819 10.6597 12.332 20.3761C11.254 28.1964 14.4784 35.2877 19.8516 39.8547C22.0491 41.7307 23.5357 44.3046 24.0625 47.1457V61.5832H29.5487C30.3861 63.0197 31.9141 63.9894 33.6875 63.9894C35.4609 63.9894 36.9889 63.0197 37.8262 61.5832H43.3125V51.9582H43.5387V49.0995C43.5387 45.572 45.3722 42.0155 48.3512 39.2508C52.3359 35.2612 55.3438 29.5945 55.3438 23.0856C55.3438 11.1987 45.5599 1.39081 33.6875 1.5015ZM33.6875 6.314C42.9877 6.18406 50.5312 13.7974 50.5312 23.0856C50.5312 28.1242 48.1972 32.5614 44.9656 35.7906L45.0426 35.8676C41.8325 38.8299 39.7561 42.8192 39.1713 47.1481H28.6464C28.117 43.0237 26.3484 39.0318 23.0062 36.1683C18.7543 32.559 16.2205 27.1208 17.0675 20.9801C18.1191 13.4004 24.2694 7.30537 31.8058 6.47041C32.4281 6.38411 33.0547 6.3327 33.6827 6.31641L33.6875 6.314ZM0 23.0856V27.8981H7.21875V23.0856H0ZM60.1562 23.0856V27.8981H67.375V23.0856H60.1562ZM13.2344 42.5617L8.19569 47.598L11.5813 50.9836L16.6152 45.9449L13.2344 42.5617ZM54.1406 42.5617L50.7574 45.9449L55.7937 50.9836L59.1793 47.598L54.1406 42.5617ZM28.875 51.9606H38.5V56.7731H28.875V51.9606Z" fill="#2C442F"/>
<rect x="28" y="51" width="13" height="8" fill="#2C442F"/>
<rect x="15" y="17" width="36" height="16" fill="#2C442F"/>
<ellipse cx="33.5" cy="18.5" rx="17.5" ry="13.5" fill="#2C442F"/>
<path d="M34.1345 57.9884L17.5753 31.0854L50.5389 30.9907L34.1345 57.9884Z" fill="#2C442F"/>
</svg>
