<svg width="48" height="58" viewBox="0 0 48 58" fill="none" xmlns="http://www.w3.org/2000/svg">
<path d="M25.1813 55.8022L25.1525 55.8075L24.9661 55.8994L24.9136 55.9099L24.8768 55.8994L24.6905 55.8075C24.6625 55.7987 24.6415 55.8031 24.6275 55.8206L24.617 55.8469L24.5723 56.9704L24.5855 57.0229L24.6117 57.057L24.8847 57.2512L24.9241 57.2617L24.9556 57.2512L25.2286 57.057L25.2601 57.015L25.2706 56.9704L25.226 55.8495C25.219 55.8215 25.2041 55.8057 25.1813 55.8022ZM25.877 55.5056L25.8428 55.5109L25.3572 55.755L25.331 55.7812L25.3231 55.8101L25.3703 56.9389L25.3835 56.9704L25.4045 56.9887L25.9321 57.2329C25.9653 57.2416 25.9907 57.2346 26.0082 57.2119L26.0187 57.1751L25.9295 55.5634C25.9207 55.5319 25.9032 55.5126 25.877 55.5056ZM24.0001 55.5109C23.9885 55.5039 23.9747 55.5016 23.9615 55.5045C23.9483 55.5075 23.9367 55.5154 23.9292 55.5266L23.9135 55.5634L23.8242 57.1751C23.826 57.2066 23.8408 57.2276 23.8688 57.2381L23.9082 57.2329L24.4358 56.9887L24.4621 56.9677L24.4726 56.9389L24.5172 55.8101L24.5093 55.7786L24.4831 55.7524L24.0001 55.5109Z" fill="#2C442F"/>
<path d="M23.625 1.0624e-08C27.7 -0.000149565 31.6164 1.57911 34.5515 4.40597C37.4865 7.23283 39.2117 11.0872 39.3645 15.1594L39.375 15.75H42C43.3245 15.7496 44.6002 16.2498 45.5714 17.1504C46.5426 18.051 47.1375 19.2855 47.2369 20.6063L47.25 21V47.25C47.2504 48.5745 46.7502 49.8502 45.8496 50.8214C44.949 51.7926 43.7145 52.3875 42.3937 52.4869L42 52.5H5.25C3.92549 52.5004 2.64976 52.0002 1.67856 51.0996C0.707361 50.199 0.112464 48.9645 0.0131256 47.6437L2.63204e-07 47.25V21C-0.000418895 19.6755 0.499817 18.3998 1.40043 17.4286C2.30104 16.4574 3.53547 15.8625 4.85625 15.7631L5.25 15.75H7.875C7.875 11.5728 9.53437 7.56677 12.4881 4.61307C15.4418 1.65937 19.4478 1.0624e-08 23.625 1.0624e-08ZM42 21H5.25V47.25H42V21ZM23.625 26.25C24.7448 26.2504 25.8351 26.6087 26.7368 27.2728C27.6384 27.9369 28.3041 28.8719 28.6366 29.9412C28.9691 31.0105 28.9509 32.1581 28.5849 33.2163C28.2188 34.2746 27.5239 35.1881 26.6017 35.8234L26.25 36.0465V39.375C26.2493 40.0441 25.9931 40.6876 25.5338 41.1741C25.0745 41.6606 24.4467 41.9534 23.7788 41.9926C23.1109 42.0318 22.4533 41.8145 21.9402 41.3851C21.4271 40.9556 21.0974 40.3465 21.0184 39.6821L21 39.375V36.0465C19.9992 35.4686 19.217 34.5767 18.7748 33.509C18.3326 32.4413 18.255 31.2575 18.5541 30.1412C18.8532 29.0249 19.5123 28.0385 20.4291 27.335C21.346 26.6314 22.4693 26.2501 23.625 26.25ZM23.625 5.25C20.8402 5.25 18.1695 6.35625 16.2004 8.32538C14.2312 10.2945 13.125 12.9652 13.125 15.75H34.125C34.125 12.9652 33.0188 10.2945 31.0496 8.32538C29.0805 6.35625 26.4098 5.25 23.625 5.25Z" fill="#2C442F"/>
</svg>
