<svg width="68" height="68" viewBox="0 0 68 68" fill="none" xmlns="http://www.w3.org/2000/svg">
<path d="M34 68C24.9826 68 16.3346 64.4179 9.95837 58.0416C3.58213 51.6654 0 43.0174 0 34C0 24.9826 3.58213 16.3346 9.95837 9.95837C16.3346 3.58213 24.9826 0 34 0C43.0174 0 51.6654 3.58213 58.0416 9.95837C64.4179 16.3346 68 24.9826 68 34C68 43.0174 64.4179 51.6654 58.0416 58.0416C51.6654 64.4179 43.0174 68 34 68ZM60.35 40.8C61.5016 36.3398 61.5016 31.6602 60.35 27.2H47.362C47.675 31.7279 47.675 36.2721 47.362 40.8H60.35ZM57.562 47.6H46.614C46.0459 51.6985 44.9606 55.7085 43.384 59.534C49.3568 57.3307 54.3719 53.1093 57.562 47.6ZM27.472 40.8H40.528C40.8972 36.2742 40.8972 31.7258 40.528 27.2H27.472C27.1028 31.7258 27.1028 36.2742 27.472 40.8ZM28.322 47.6C29.716 55.76 32.164 61.2 34 61.2C35.836 61.2 38.284 55.76 39.678 47.6H28.322ZM7.65 40.8H20.638C20.325 36.2721 20.325 31.7279 20.638 27.2H7.65C6.49838 31.6602 6.49838 36.3398 7.65 40.8ZM10.438 47.6C13.6281 53.1093 18.6432 57.3307 24.616 59.534C23.188 56.27 22.1 52.19 21.386 47.6H10.438ZM57.562 20.4C54.3719 14.8907 49.3568 10.6693 43.384 8.466C44.812 11.73 45.9 15.81 46.614 20.4H57.562ZM28.322 20.4H39.678C38.284 12.24 35.836 6.8 34 6.8C32.164 6.8 29.716 12.24 28.322 20.4ZM10.438 20.4H21.386C22.066 15.81 23.188 11.73 24.616 8.466C18.6432 10.6693 13.6281 14.8907 10.438 20.4Z" fill="#2C442F"/>
</svg>
