<svg width="59" height="59" viewBox="0 0 59 59" fill="none" xmlns="http://www.w3.org/2000/svg">
<path d="M20.7451 15.7744H53.1035C54.4579 15.7745 55.5928 16.2449 56.5625 17.2129C57.5313 18.1801 58.0016 19.314 58 20.6699V41.8262C57.9999 42.4836 57.8776 43.1034 57.6338 43.6934C57.3888 44.2861 57.0444 44.801 56.5986 45.2451L45.2461 56.5977C44.7996 57.0441 44.2835 57.3887 43.6904 57.6338C43.1002 57.8777 42.4813 57.9999 41.8262 58H20.6709C19.3165 58 18.1824 57.53 17.2148 56.5625C16.3076 55.6553 15.8369 54.6003 15.7803 53.3535L15.7744 53.1016V20.5977C15.7744 19.2509 16.2512 18.1346 17.2354 17.1914C18.23 16.2382 19.3835 15.7744 20.7451 15.7744ZM44.2578 40.3096C43.1702 40.3096 42.2112 40.6895 41.4502 41.4531C40.6913 42.2148 40.3121 43.1713 40.3096 44.2559V55.5176L55.5176 40.3096H44.2578ZM37.0664 1.08984C38.4298 0.842036 39.6163 1.10601 40.6924 1.87695C41.7776 2.65451 42.4365 3.70159 42.6846 5.0752L42.6855 5.0791L43.2031 7.87793H20.6709C17.1604 7.87797 14.1303 9.13921 11.6348 11.6348C9.13921 14.1303 7.87797 17.1604 7.87793 20.6709V46.7334C7.79903 46.6422 7.72116 46.5487 7.64648 46.4512C7.18502 45.8482 6.89325 45.1677 6.76953 44.3945L6.76758 44.3867L6.7666 44.3779L1.09082 12.3887L1.08984 12.3838C0.842024 11.0203 1.1065 9.83549 1.87695 8.76172C2.6538 7.67908 3.69962 7.01899 5.07227 6.7666L37.0615 1.09082L37.0664 1.08984Z" fill="#54675B" stroke="#344E39" stroke-width="2"/>
</svg>
