<svg width="80" height="59" viewBox="0 0 80 59" fill="none" xmlns="http://www.w3.org/2000/svg">
<path d="M0 59V48.675C0 46.5854 0.530909 44.6655 1.59273 42.9152C2.65455 41.1648 4.06303 39.8275 5.81818 38.9032C9.57576 36.998 13.3939 35.5697 17.2727 34.6183C21.1515 33.6669 25.0909 33.19 29.0909 33.1875C33.0909 33.1851 37.0303 33.662 40.9091 34.6183C44.7879 35.5746 48.6061 37.0029 52.3636 38.9032C54.1212 39.825 55.5309 41.1624 56.5927 42.9152C57.6545 44.6679 58.1842 46.5879 58.1818 48.675V59H0ZM65.4545 59V47.9375C65.4545 45.2334 64.7127 42.6361 63.2291 40.1458C61.7455 37.6556 59.6388 35.5205 56.9091 33.7407C60 34.1094 62.9091 34.74 65.6364 35.6324C68.3636 36.5247 70.9091 37.615 73.2727 38.9032C75.4545 40.1323 77.1212 41.4992 78.2727 43.0037C79.4242 44.5081 80 46.1528 80 47.9375V59H65.4545ZM18.8182 25.1672C15.9697 22.2787 14.5455 18.8063 14.5455 14.7501C14.5455 10.6938 15.9697 7.22144 18.8182 4.3329C21.6667 1.44436 25.0909 9.45499e-05 29.0909 9.45499e-05C33.0909 9.45499e-05 36.5152 1.44436 39.3636 4.3329C42.2121 7.22144 43.6364 10.6938 43.6364 14.7501C43.6364 18.8063 42.2121 22.2787 39.3636 25.1672C36.5152 28.0558 33.0909 29.5 29.0909 29.5C25.0909 29.5 21.6667 28.0558 18.8182 25.1672ZM61.1818 25.1672C58.3333 28.0558 54.9091 29.5 50.9091 29.5C50.2424 29.5 49.3939 29.4238 48.3636 29.2714C47.3333 29.119 46.4849 28.9494 45.8182 28.7626C47.4545 26.7959 48.7127 24.6141 49.5927 22.2172C50.4727 19.8204 50.9115 17.3313 50.9091 14.7501C50.9067 12.1688 50.4679 9.67977 49.5927 7.2829C48.7176 4.88602 47.4594 2.70426 45.8182 0.737593C46.6667 0.430302 47.5152 0.229949 48.3636 0.136533C49.2121 0.043116 50.0606 -0.00236378 50.9091 9.45499e-05C54.9091 9.45499e-05 58.3333 1.44436 61.1818 4.3329C64.0303 7.22144 65.4545 10.6938 65.4545 14.7501C65.4545 18.8063 64.0303 22.2787 61.1818 25.1672Z" fill="#54675B"/>
</svg>
