<svg width="32" height="31" viewBox="0 0 32 31" fill="none" xmlns="http://www.w3.org/2000/svg">
<rect width="32" height="31" rx="5" fill="#587859"/>
<path d="M14.0124 8.448C14.6104 6.698 17.0284 6.645 17.7374 8.289L17.7974 8.449L18.6044 10.809C18.7893 11.3502 19.0882 11.8455 19.4808 12.2614C19.8734 12.6773 20.3507 13.0042 20.8804 13.22L21.0974 13.301L23.4574 14.107C25.2074 14.705 25.2604 17.123 23.6174 17.832L23.4574 17.892L21.0974 18.699C20.556 18.8838 20.0605 19.1826 19.6444 19.5753C19.2283 19.9679 18.9013 20.4452 18.6854 20.975L18.6044 21.191L17.7984 23.552C17.2004 25.302 14.7824 25.355 14.0744 23.712L14.0124 23.552L13.2064 21.192C13.0216 20.6506 12.7227 20.1551 12.3301 19.739C11.9375 19.3229 11.4602 18.9959 10.9304 18.78L10.7144 18.699L8.35438 17.893C6.60338 17.295 6.55038 14.877 8.19438 14.169L8.35438 14.107L10.7144 13.301C11.2556 13.1161 11.7509 12.8172 12.1668 12.4246C12.5827 12.0319 12.9096 11.5547 13.1254 11.025L13.2064 10.809L14.0124 8.448ZM23.9054 5C24.0925 5 24.2758 5.05248 24.4345 5.15147C24.5933 5.25046 24.7211 5.392 24.8034 5.56L24.8514 5.677L25.2014 6.703L26.2284 7.053C26.4159 7.1167 26.5802 7.23462 26.7006 7.39182C26.821 7.54902 26.892 7.73842 26.9047 7.93602C26.9173 8.13362 26.871 8.33053 26.7716 8.50179C26.6722 8.67304 26.5242 8.81094 26.3464 8.898L26.2284 8.946L25.2024 9.296L24.8524 10.323C24.7886 10.5104 24.6706 10.6747 24.5133 10.795C24.356 10.9153 24.1666 10.9862 23.969 10.9987C23.7714 11.0113 23.5746 10.9648 23.4034 10.8654C23.2322 10.7659 23.0944 10.6179 23.0074 10.44L22.9594 10.323L22.6094 9.297L21.5824 8.947C21.3949 8.8833 21.2305 8.76538 21.1101 8.60819C20.9898 8.45099 20.9187 8.26158 20.9061 8.06398C20.8935 7.86638 20.9398 7.66947 21.0392 7.49821C21.1385 7.32696 21.2865 7.18906 21.4644 7.102L21.5824 7.054L22.6084 6.704L22.9584 5.677C23.0258 5.47943 23.1534 5.30791 23.3232 5.1865C23.493 5.06509 23.6966 4.99987 23.9054 5Z" fill="white"/>
</svg>
