<svg width="28" height="23" viewBox="0 0 28 23" fill="none" xmlns="http://www.w3.org/2000/svg">
<path d="M3.6805 22.348H23.871C26.3085 22.348 27.551 21.129 27.551 18.715V6.4455C27.551 4.0315 26.3085 2.8245 23.871 2.8245H21.129C20.215 2.8245 19.934 2.637 19.4065 2.051L18.457 0.996C17.883 0.352 17.2855 0 16.0665 0H11.4025C10.1955 0 9.5975 0.352 9.012 0.996L8.0625 2.051C7.547 2.625 7.254 2.8245 6.34 2.8245H3.68C1.2425 2.8245 0 4.0315 0 6.4455V18.715C0 21.129 1.243 22.348 3.6805 22.348ZM3.715 20.461C2.555 20.461 1.887 19.84 1.887 18.621V6.551C1.887 5.332 2.555 4.711 3.715 4.711H6.8085C7.8635 4.711 8.426 4.512 9.012 3.856L9.9375 2.8245C10.6055 2.0745 10.9455 1.887 11.9885 1.887H15.4805C16.5235 1.887 16.8635 2.0745 17.5315 2.8245L18.457 3.8555C19.043 4.512 19.6055 4.711 20.6605 4.711H23.836C24.996 4.711 25.6645 5.332 25.6645 6.551V18.621C25.6645 19.84 24.9965 20.461 23.836 20.461H3.715ZM13.77 18.598C14.6119 18.6004 15.4459 18.4361 16.224 18.1147C17.0021 17.7933 17.7089 17.321 18.3036 16.7251C18.8984 16.1293 19.3693 15.4216 19.6893 14.6429C20.0093 13.8642 20.172 13.0299 20.168 12.188C20.168 8.625 17.332 5.778 13.7695 5.778C10.2305 5.778 7.383 8.625 7.383 12.188C7.383 15.75 10.2305 18.598 13.7695 18.598M22.195 9.328C22.992 9.328 23.648 8.684 23.648 7.887C23.648 7.50164 23.4949 7.13206 23.2224 6.85957C22.9499 6.58708 22.5804 6.434 22.195 6.434C21.8096 6.434 21.4401 6.58708 21.1676 6.85957C20.8951 7.13206 20.742 7.50164 20.742 7.887C20.742 8.684 21.398 9.328 22.195 9.328ZM13.77 16.817C11.227 16.817 9.153 14.7545 9.153 12.188C9.153 9.6215 11.2155 7.5595 13.77 7.5595C14.3781 7.55878 14.9803 7.678 15.5422 7.91034C16.1041 8.14268 16.6147 8.48358 17.0446 8.91351C17.4746 9.34344 17.8156 9.85397 18.048 10.4159C18.2804 10.9777 18.3997 11.5799 18.399 12.188C18.3997 12.7961 18.2805 13.3984 18.0481 13.9603C17.8157 14.5222 17.4748 15.0328 17.0448 15.4628C16.6148 15.8928 16.1042 16.2337 15.5423 16.4661C14.9804 16.6985 14.3781 16.8177 13.77 16.817Z" fill="#636947"/>
</svg>
