<svg width="42" height="47" viewBox="0 0 42 47" fill="none" xmlns="http://www.w3.org/2000/svg">
<path d="M18.5195 1H23.1504C27.543 1 30.7368 1.00275 33.1758 1.33105C35.5862 1.65556 37.11 2.28186 38.25 3.4209C39.3895 4.55949 40.0156 6.08256 40.3398 8.49316C40.6679 10.9325 40.6699 14.1268 40.6699 18.5195V27.7803C40.6699 32.1732 40.6672 35.3676 40.3389 37.8066C40.0143 40.2168 39.388 41.7399 38.249 42.8799C37.1104 44.0194 35.5874 44.6455 33.1768 44.9697C30.7374 45.2978 27.5431 45.2998 23.1504 45.2998H18.5195C14.1269 45.2998 10.9331 45.2971 8.49414 44.9688C6.0839 44.6443 4.55991 44.0188 3.41992 42.8799C2.2804 41.7413 1.65432 40.2181 1.33008 37.8076C1.00199 35.3682 1 32.1733 1 27.7803V18.5195C1 14.1268 1.00205 10.9325 1.33008 8.49316C1.65429 6.08259 2.28046 4.55948 3.41992 3.4209L3.4209 3.41992C4.55948 2.28046 6.08259 1.65429 8.49316 1.33008C10.9325 1.00205 14.1268 1 18.5195 1ZM11.5752 25.0439C10.8497 25.0439 10.1537 25.3319 9.64062 25.8447C9.12748 26.3579 8.83887 27.0546 8.83887 27.7803C8.83894 28.5059 9.12755 29.2018 9.64062 29.7148C10.1537 30.2278 10.8496 30.5166 11.5752 30.5166H23.1504C23.8759 30.5165 24.5719 30.2279 25.085 29.7148C25.598 29.2018 25.8866 28.5058 25.8867 27.7803C25.8867 27.0546 25.5981 26.3579 25.085 25.8447C24.5719 25.3318 23.8759 25.044 23.1504 25.0439H11.5752ZM11.5752 15.7842C10.8497 15.7842 10.1537 16.072 9.64062 16.585C9.12759 17.098 8.83899 17.794 8.83887 18.5195C8.83887 19.2452 9.12748 19.9419 9.64062 20.4551C10.1537 20.968 10.8497 21.2559 11.5752 21.2559H30.0947C30.8204 21.2559 31.5171 20.9682 32.0303 20.4551C32.5434 19.9419 32.8311 19.2452 32.8311 18.5195C32.8309 17.7941 32.5432 17.098 32.0303 16.585C31.5171 16.0718 30.8204 15.7842 30.0947 15.7842H11.5752Z" fill="#B9D8BC" stroke="#344E39" stroke-width="2"/>
</svg>
