<svg width="42" height="42" viewBox="0 0 42 42" fill="none" xmlns="http://www.w3.org/2000/svg">
<path d="M14.6514 11.4346H37.5049C38.3831 11.4346 39.111 11.7352 39.7412 12.3643C40.3705 12.9925 40.671 13.7196 40.6699 14.5986V29.54C40.6699 29.9667 40.5908 30.3666 40.4336 30.7471C40.2752 31.1303 40.0536 31.4611 39.7666 31.7471L31.748 39.7656C31.4603 40.0533 31.1285 40.2752 30.7451 40.4336C30.3643 40.591 29.965 40.6699 29.54 40.6699H14.5996C13.7214 40.6699 12.9949 40.3689 12.3662 39.7402C11.7376 39.1116 11.4356 38.3842 11.4346 37.5039V14.5469C11.4347 13.6767 11.7385 12.9655 12.376 12.3545C13.0243 11.7332 13.7661 11.4346 14.6514 11.4346ZM31.2578 28.1758C30.4157 28.1759 29.6626 28.4722 29.0674 29.0693C28.4741 29.6647 28.1778 30.416 28.1758 31.2559V39.9199L29.8828 38.2119L38.2119 29.8828L39.9199 28.1758H31.2578ZM26.2314 1.05859C27.1185 0.897363 27.8751 1.06782 28.5684 1.56445C29.2709 2.06778 29.6954 2.73937 29.8574 3.63672L29.8584 3.64062L30.1602 5.26953H14.5996C12.0417 5.26953 9.82698 6.19255 8.00977 8.00977C6.19255 9.82698 5.26953 12.0417 5.26953 14.5996V32.0049C5.17711 31.7872 5.11087 31.5559 5.07129 31.3086L5.06934 31.2998L5.06836 31.292L1.05957 8.69824L1.05859 8.69434L1.01367 8.36719C0.945034 7.61871 1.13023 6.96454 1.56445 6.35938C2.06745 5.65843 2.73845 5.23229 3.63574 5.06738L26.2266 1.05957L26.2314 1.05859Z" fill="#B9D8BC" stroke="#344E39" stroke-width="2"/>
</svg>
