<svg width="40" height="40" viewBox="0 0 40 40" fill="none" xmlns="http://www.w3.org/2000/svg">
<path d="M25.4583 29.6198L28.9344 31.725C29.1302 31.8556 29.3182 31.8556 29.4984 31.725C29.6785 31.5944 29.7353 31.4149 29.6687 31.1865L28.7385 27.2208L31.774 24.626C31.9372 24.4628 31.9861 24.2833 31.9208 24.0875C31.8556 23.8917 31.7087 23.7774 31.4802 23.7448L27.5146 23.4021L25.899 19.6323C25.8337 19.4365 25.6868 19.3385 25.4583 19.3385C25.2299 19.3385 25.083 19.4365 25.0177 19.6323L23.4021 23.4021L19.4365 23.7448C19.208 23.7774 19.0611 23.8917 18.9958 24.0875C18.9306 24.2833 18.9795 24.4628 19.1427 24.626L22.1781 27.2208L21.2479 31.1865C21.1826 31.4149 21.2401 31.5944 21.4202 31.725C21.6004 31.8556 21.7878 31.8556 21.9823 31.725L25.4583 29.6198ZM3.91667 27.4167C2.83958 27.4167 1.91786 27.0335 1.1515 26.2671C0.385139 25.5008 0.00130556 24.5784 0 23.5V3.91667C0 2.83958 0.383833 1.91786 1.1515 1.1515C1.91917 0.385139 2.84089 0.00130556 3.91667 0H23.5C24.5771 0 25.4995 0.383833 26.2671 1.1515C27.0348 1.91917 27.418 2.84089 27.4167 3.91667V5.875C27.4167 6.42986 27.2287 6.89529 26.8527 7.27129C26.4767 7.64729 26.0119 7.83464 25.4583 7.83333C24.9048 7.83203 24.44 7.64403 24.064 7.26933C23.688 6.89464 23.5 6.42986 23.5 5.875V3.91667H3.91667V23.5H5.875C6.42986 23.5 6.89529 23.688 7.27129 24.064C7.64729 24.44 7.83464 24.9048 7.83333 25.4583C7.83203 26.0119 7.64403 26.4773 7.26933 26.8546C6.89464 27.2319 6.42986 27.4193 5.875 27.4167H3.91667ZM15.6667 39.1667C14.5896 39.1667 13.6679 38.7835 12.9015 38.0171C12.1351 37.2508 11.7513 36.3284 11.75 35.25V15.6667C11.75 14.5896 12.1338 13.6679 12.9015 12.9015C13.6692 12.1351 14.5909 11.7513 15.6667 11.75H35.25C36.3271 11.75 37.2495 12.1338 38.0171 12.9015C38.7848 13.6692 39.168 14.5909 39.1667 15.6667V35.25C39.1667 36.3271 38.7835 37.2495 38.0171 38.0171C37.2508 38.7848 36.3284 39.168 35.25 39.1667H15.6667Z" fill="white"/>
</svg>
