<svg width="42" height="42" viewBox="0 0 42 42" fill="none" xmlns="http://www.w3.org/2000/svg">
<path d="M20.833 1C21.7816 1 22.7272 1.26081 23.9824 1.87109C24.9393 2.33634 26.0318 2.98128 27.4062 3.82617L28.8809 4.73926L33.0479 7.3252V7.32422C35.0405 8.56159 36.4736 9.45294 37.5488 10.2764C38.6056 11.0857 39.256 11.7859 39.7061 12.6104L39.707 12.6123C40.1598 13.4379 40.4081 14.3804 40.5361 15.7412C40.6661 17.1224 40.667 18.8561 40.667 21.2588V24.4268C40.667 28.5174 40.6642 31.4883 40.3691 33.7559C40.0773 35.9981 39.5152 37.4025 38.5059 38.4473C37.5014 39.4868 36.1578 40.061 34.0059 40.3604C31.8215 40.6642 28.9573 40.667 25 40.667H16.667C12.7096 40.667 9.84526 40.6642 7.66113 40.3604C5.50962 40.061 4.16576 39.4862 3.16016 38.4463C2.1503 37.4018 1.58843 35.9979 1.29688 33.7559C1.002 31.488 1 28.5166 1 24.4268V21.2559C1 18.8544 1.00091 17.1213 1.13086 15.7402C1.25896 14.3792 1.50731 13.4367 1.95996 12.6123L1.96094 12.6113C2.41217 11.7862 3.06248 11.0858 4.11914 10.2764C5.194 9.45303 6.62592 8.56136 8.61816 7.32422L8.61914 7.3252L12.7852 4.73926H12.7861C14.893 3.43165 16.4089 2.4915 17.6846 1.87109C18.9396 1.26072 19.8844 1.00006 20.833 1ZM20.833 24.5205C20.1535 24.5206 19.502 24.791 19.0215 25.2715C18.541 25.752 18.2706 26.4035 18.2705 27.083V33.333C18.2705 34.0126 18.5409 34.6649 19.0215 35.1455C19.502 35.6259 20.1536 35.8954 20.833 35.8955C21.5126 35.8955 22.1649 35.6261 22.6455 35.1455C23.1261 34.6649 23.3955 34.0126 23.3955 33.333V27.083C23.3954 26.4036 23.1259 25.752 22.6455 25.2715C22.1649 24.7909 21.5126 24.5205 20.833 24.5205Z" fill="#B9D8BC" stroke="#344E39" stroke-width="2"/>
</svg>
