<svg width="32" height="30" viewBox="0 0 32 30" fill="none" xmlns="http://www.w3.org/2000/svg">
<path d="M5.50057 0L3.89143 1.58613L6.28571 3.94841L7.89257 2.36228L5.50057 0ZM26.5006 0L24.1063 2.36228L25.7143 3.94841L28.1074 1.58726L26.5006 0ZM16 0.703945C15.6229 0.706953 15.2419 0.73102 14.8571 0.776144H14.8229C10.1874 1.30072 6.49829 4.99755 5.85714 9.55289C5.34514 13.2193 6.87657 16.5438 9.42857 18.685C10.4723 19.5645 11.1784 20.7712 11.4286 22.1032V28.8719H14.0343C14.432 29.5454 15.1577 30 16 30C16.8423 30 17.568 29.5454 17.9657 28.8719H20.5714V24.3594H20.6789V23.0192C20.6789 21.3654 21.5497 19.698 22.9646 18.4018C24.8571 16.5314 26.2857 13.8747 26.2857 10.8231C26.2857 5.25025 21.6389 0.652051 16 0.703945ZM16 2.96018C20.4171 2.89926 24 6.46862 24 10.8231C24 13.1854 22.8914 15.2657 21.3566 16.7796L21.3931 16.8157C19.8685 18.2045 18.8823 20.0748 18.6046 22.1043H13.6057C13.3543 20.1707 12.5143 18.2992 10.9269 16.9567C8.90743 15.2645 7.704 12.715 8.10629 9.83605C8.60572 6.28248 11.5269 3.42496 15.1063 3.0335C15.4018 2.99305 15.6994 2.96894 15.9977 2.96131L16 2.96018ZM0 10.8231V13.0794H3.42857V10.8231H0ZM28.5714 10.8231V13.0794H32V10.8231H28.5714ZM6.28571 19.9541L3.89257 22.3153L5.50057 23.9025L7.89143 21.5403L6.28571 19.9541ZM25.7143 19.9541L24.1074 21.5403L26.4994 23.9025L28.1074 22.3153L25.7143 19.9541ZM13.7143 24.3605H18.2857V26.6168H13.7143V24.3605Z" fill="#636947"/>
</svg>
