<svg width="45" height="28" viewBox="0 0 45 28" fill="none" xmlns="http://www.w3.org/2000/svg">
<path d="M22.5 25.8462C31.1873 25.8462 38.7017 21.0646 42.5676 14C38.7017 6.93539 31.1873 2.15385 22.5 2.15385C13.8127 2.15385 6.29826 6.93539 2.43243 14C6.29826 21.0646 13.8127 25.8462 22.5 25.8462ZM22.5 0C32.4035 0 40.9604 5.70769 45 14C40.9604 22.2923 32.4035 28 22.5 28C12.5965 28 4.03957 22.2923 0 14C4.03957 5.70769 12.5965 0 22.5 0ZM22.5 4.30769C27.9295 4.30769 32.2732 8.61539 32.2732 14C32.2732 19.3846 27.9295 23.6923 22.5 23.6923C17.0705 23.6923 12.7268 19.3846 12.7268 14C12.7268 8.61539 17.0705 4.30769 22.5 4.30769ZM22.5 6.46154C20.484 6.46154 18.5506 7.25577 17.125 8.6695C15.6995 10.0832 14.8986 12.0007 14.8986 14C14.8986 15.9993 15.6995 17.9168 17.125 19.3305C18.5506 20.7442 20.484 21.5385 22.5 21.5385C24.516 21.5385 26.4494 20.7442 27.875 19.3305C29.3005 17.9168 30.1013 15.9993 30.1013 14C30.1013 12.0007 29.3005 10.0832 27.875 8.6695C26.4494 7.25577 24.516 6.46154 22.5 6.46154Z" fill="#000801"/>
</svg>
