<svg width="42" height="42" viewBox="0 0 42 42" fill="none" xmlns="http://www.w3.org/2000/svg">
<path d="M11.5752 24.1504H30.0947C32.8992 24.1504 35.5891 25.2641 37.5723 27.2471C39.5554 29.2302 40.6698 31.9201 40.6699 34.7246C40.6699 36.3013 40.0436 37.8138 38.9287 38.9287C37.8138 40.0436 36.3013 40.6699 34.7246 40.6699H6.94531C5.3686 40.6699 3.85612 40.0436 2.74121 38.9287C1.62633 37.8138 1 36.3013 1 34.7246C1.0001 31.9201 2.11455 29.2302 4.09766 27.2471C6.08083 25.2641 8.77067 24.1504 11.5752 24.1504ZM20.835 1C23.0256 1 25.1267 1.86998 26.6758 3.41895C28.2248 4.96794 29.0947 7.06916 29.0947 9.25977C29.0947 11.4504 28.2248 13.5515 26.6758 15.1006C25.1267 16.6496 23.0256 17.5195 20.835 17.5195C18.6443 17.5195 16.5432 16.6496 14.9941 15.1006C13.4452 13.5515 12.5752 11.4504 12.5752 9.25977C12.5753 7.06916 13.4451 4.96794 14.9941 3.41895C16.5432 1.86997 18.6443 1.00001 20.835 1Z" fill="#B9D8BC" stroke="#344E39" stroke-width="2"/>
</svg>
