<svg width="56" height="53" viewBox="0 0 56 53" fill="none" xmlns="http://www.w3.org/2000/svg">
<path d="M7.3263 52.9258C6.34909 52.9258 5.51496 52.2197 5.35371 51.2558L0.0279955 19.4225C-0.176015 18.2031 0.764202 17.0925 2.00058 17.0925H53.3693C54.6057 17.0925 55.5459 18.2031 55.3419 19.4225L50.0162 51.2558C49.8549 52.2197 49.0208 52.9258 48.0436 52.9258H7.3263ZM8.3351 47.6573C8.48982 48.6281 9.32712 49.3425 10.3102 49.3425H45.0597C46.0427 49.3425 46.88 48.6281 47.0348 47.6573L50.966 22.9906C51.1596 21.7758 50.2211 20.6758 48.9909 20.6758H6.37892C5.14879 20.6758 4.21024 21.7758 4.40385 22.9906L8.3351 47.6573ZM20.5183 33.2175H34.8516C35.3604 33.2175 35.7857 33.0455 36.1273 32.7015C36.4713 32.3575 36.6433 31.9311 36.6433 31.4222C36.6433 30.9134 36.4713 30.4882 36.1273 30.1466C35.7833 29.805 35.358 29.633 34.8516 29.6306H20.5183C20.0094 29.6306 19.5842 29.8038 19.2426 30.1502C18.901 30.4966 18.729 30.9218 18.7266 31.4258C18.7242 31.9299 18.8962 32.3551 19.2426 32.7015C19.589 33.0479 20.0142 33.2187 20.5183 33.2139M6.18493 12.1296C5.6761 12.1296 5.25088 11.9576 4.90927 11.6136C4.56766 11.2696 4.39566 10.8432 4.39327 10.3343C4.39088 9.8255 4.56288 9.40028 4.90927 9.05867C5.25566 8.71706 5.68088 8.54625 6.18493 8.54625H49.1849C49.6938 8.54625 50.119 8.71825 50.4606 9.06225C50.8022 9.40625 50.9742 9.83267 50.9766 10.3415C50.979 10.8503 50.807 11.2756 50.4606 11.6172C50.1142 11.9588 49.689 12.1296 49.1849 12.1296H6.18493ZM13.3516 3.58692C12.8428 3.58692 12.4175 3.41492 12.0759 3.07092C11.7343 2.72692 11.5623 2.3005 11.5599 1.79167C11.5575 1.28283 11.7295 0.857611 12.0759 0.516C12.4175 0.172 12.8428 0 13.3516 0H42.0183C42.5271 0 42.9523 0.172 43.2939 0.516C43.6355 0.86 43.8075 1.28642 43.8099 1.79525C43.8123 2.30408 43.6403 2.72931 43.2939 3.07092C42.9475 3.41253 42.5223 3.58453 42.0183 3.58692H13.3516Z" fill="#344E39"/>
</svg>
