<svg width="54" height="57" viewBox="0 0 54 57" fill="none" xmlns="http://www.w3.org/2000/svg">
<path d="M2 15.25V8.625C2 6.86794 2.65848 5.18285 3.83058 3.94042C5.00268 2.69799 6.5924 2 8.25 2H14.5M2 41.75V48.375C2 50.1321 2.65848 51.8172 3.83058 53.0596C5.00268 54.302 6.5924 55 8.25 55H14.5M39.5 2H45.75C47.4076 2 48.9973 2.69799 50.1694 3.94042C51.3415 5.18285 52 6.86794 52 8.625V15.25M39.5 55H45.75C47.4076 55 48.9973 54.302 50.1694 53.0596C51.3415 51.8172 52 50.1321 52 48.375V41.75M11.375 28.5H42.625" stroke="#15462E" stroke-width="4" stroke-linecap="round" stroke-linejoin="round"/>
</svg>
