<svg width="35" height="35" viewBox="0 0 35 35" fill="none" xmlns="http://www.w3.org/2000/svg">
<path d="M17.0833 0C17.5364 0 17.9709 0.179985 18.2913 0.500359C18.6117 0.820734 18.7917 1.25526 18.7917 1.70833C18.7917 2.16141 18.6117 2.59593 18.2913 2.91631C17.9709 3.23668 17.5364 3.41667 17.0833 3.41667C14.3803 3.41667 11.738 4.2182 9.49054 5.71992C7.24307 7.22163 5.49138 9.35607 4.45698 11.8533C3.42258 14.3506 3.15194 17.0985 3.67927 19.7496C4.2066 22.4006 5.50822 24.8358 7.41954 26.7471C9.33086 28.6584 11.766 29.9601 14.4171 30.4874C17.0682 31.0147 19.8161 30.7441 22.3133 29.7097C24.8106 28.6753 26.945 26.9236 28.4468 24.6761C29.9485 22.4287 30.75 19.7863 30.75 17.0833C30.75 16.6303 30.93 16.1957 31.2504 15.8754C31.5707 15.555 32.0053 15.375 32.4583 15.375C32.9114 15.375 33.3459 15.555 33.6663 15.8754C33.9867 16.1957 34.1667 16.6303 34.1667 17.0833C34.1667 26.5185 26.5185 34.1667 17.0833 34.1667C7.64821 34.1667 0 26.5185 0 17.0833C0 7.64821 7.64821 0 17.0833 0ZM17.0833 6.83333C17.5364 6.83333 17.9709 7.01332 18.2913 7.33369C18.6117 7.65407 18.7917 8.08859 18.7917 8.54167C18.7917 8.99475 18.6117 9.42927 18.2913 9.74964C17.9709 10.07 17.5364 10.25 17.0833 10.25C15.7318 10.25 14.4107 10.6508 13.2869 11.4016C12.1632 12.1525 11.2874 13.2197 10.7702 14.4683C10.253 15.717 10.1176 17.0909 10.3813 18.4165C10.645 19.742 11.2958 20.9596 12.2514 21.9152C13.2071 22.8709 14.4247 23.5217 15.7502 23.7854C17.0758 24.049 18.4497 23.9137 19.6983 23.3965C20.947 22.8793 22.0142 22.0035 22.765 20.8797C23.5159 19.756 23.9167 18.4348 23.9167 17.0833C23.9167 16.6303 24.0967 16.1957 24.417 15.8754C24.7374 15.555 25.1719 15.375 25.625 15.375C26.0781 15.375 26.5126 15.555 26.833 15.8754C27.1534 16.1957 27.3333 16.6303 27.3333 17.0833C27.3333 19.1106 26.7322 21.0923 25.6059 22.7779C24.4796 24.4635 22.8788 25.7773 21.0058 26.5531C19.1329 27.3289 17.072 27.5319 15.0837 27.1364C13.0954 26.7409 11.269 25.7647 9.83549 24.3312C8.402 22.8977 7.42578 21.0713 7.03028 19.083C6.63479 17.0947 6.83777 15.0338 7.61357 13.1608C8.38937 11.2879 9.70313 9.68705 11.3887 8.56077C13.0743 7.43449 15.0561 6.83333 17.0833 6.83333ZM28.3088 0.170833C28.5353 0.170833 28.7526 0.260826 28.9128 0.421013C29.073 0.5812 29.163 0.798461 29.163 1.025V4.15125C29.1634 4.37749 29.2536 4.59431 29.4137 4.75413C29.5739 4.91395 29.7909 5.00371 30.0171 5.00371H33.1417C33.3682 5.00371 33.5855 5.0937 33.7457 5.25389C33.9058 5.41408 33.9958 5.63134 33.9958 5.85787V7.421L30.7705 10.6463C30.1299 11.2871 29.261 11.6472 28.3549 11.6474H24.9382L18.2928 18.2911C17.9706 18.6023 17.5391 18.7745 17.0912 18.7706C16.6433 18.7667 16.2148 18.5871 15.8981 18.2703C15.5813 17.9536 15.4017 17.5251 15.3978 17.0772C15.3939 16.6293 15.5661 16.1977 15.8772 15.8755L22.5227 9.23183V5.81517C22.5224 4.90933 22.8819 4.04046 23.522 3.39958L26.7508 0.170833H28.3088Z" fill="#587956"/>
</svg>
