<svg width="20" height="27" viewBox="0 0 20 27" fill="none" xmlns="http://www.w3.org/2000/svg">
<mask id="path-1-inside-1_88_52" fill="white">
<path d="M20 1.44846H15L13.5714 0H6.42857L5 1.44846H0V4.34537H20M1.42857 23.1753C1.42857 23.9436 1.72959 24.6805 2.26541 25.2237C2.80123 25.767 3.52795 26.0722 4.28571 26.0722H15.7143C16.472 26.0722 17.1988 25.767 17.7346 25.2237C18.2704 24.6805 18.5714 23.9436 18.5714 23.1753V5.79383H1.42857V23.1753Z"/>
</mask>
<path d="M20 1.44846H15L13.5714 0H6.42857L5 1.44846H0V4.34537H20M1.42857 23.1753C1.42857 23.9436 1.72959 24.6805 2.26541 25.2237C2.80123 25.767 3.52795 26.0722 4.28571 26.0722H15.7143C16.472 26.0722 17.1988 25.767 17.7346 25.2237C18.2704 24.6805 18.5714 23.9436 18.5714 23.1753V5.79383H1.42857V23.1753Z" fill="#AEC3B0"/>
<path d="M15 1.44846L14.288 2.15066L14.5817 2.44846H15V1.44846ZM13.5714 0L14.2834 -0.702203L13.9897 -1H13.5714V0ZM6.42857 0V-1H6.0103L5.71659 -0.702203L6.42857 0ZM5 1.44846V2.44846H5.41827L5.71198 2.15066L5 1.44846ZM0 1.44846V0.448457H-1V1.44846H0ZM0 4.34537H-1V5.34537H0V4.34537ZM1.42857 23.1753H0.428571H1.42857ZM18.5714 5.79383H19.5714V4.79383H18.5714V5.79383ZM1.42857 5.79383V4.79383H0.428571V5.79383H1.42857ZM20 1.44846V0.448457H15V1.44846V2.44846H20V1.44846ZM15 1.44846L15.712 0.746254L14.2834 -0.702203L13.5714 0L12.8595 0.702203L14.288 2.15066L15 1.44846ZM13.5714 0V-1H6.42857V0V1H13.5714V0ZM6.42857 0L5.71659 -0.702203L4.28802 0.746254L5 1.44846L5.71198 2.15066L7.14055 0.702203L6.42857 0ZM5 1.44846V0.448457H0V1.44846V2.44846H5V1.44846ZM0 1.44846H-1V4.34537H0H1V1.44846H0ZM0 4.34537V5.34537H20V4.34537V3.34537H0V4.34537ZM1.42857 23.1753H0.428571C0.428571 24.2044 0.831637 25.1941 1.55343 25.9259L2.26541 25.2237L2.97739 24.5215C2.62754 24.1668 2.42857 23.6828 2.42857 23.1753H1.42857ZM2.26541 25.2237L1.55343 25.9259C2.27569 26.6582 3.25824 27.0722 4.28571 27.0722V26.0722V25.0722C3.79767 25.0722 3.32677 24.8758 2.97739 24.5215L2.26541 25.2237ZM4.28571 26.0722V27.0722H15.7143V26.0722V25.0722H4.28571V26.0722ZM15.7143 26.0722V27.0722C16.7418 27.0722 17.7243 26.6582 18.4466 25.9259L17.7346 25.2237L17.0226 24.5215C16.6732 24.8758 16.2023 25.0722 15.7143 25.0722V26.0722ZM17.7346 25.2237L18.4466 25.9259C19.1684 25.1941 19.5714 24.2044 19.5714 23.1753H18.5714H17.5714C17.5714 23.6828 17.3725 24.1668 17.0226 24.5215L17.7346 25.2237ZM18.5714 23.1753H19.5714V5.79383H18.5714H17.5714V23.1753H18.5714ZM18.5714 5.79383V4.79383H1.42857V5.79383V6.79383H18.5714V5.79383ZM1.42857 5.79383H0.428571V23.1753H1.42857H2.42857V5.79383H1.42857Z" fill="black" mask="url(#path-1-inside-1_88_52)"/>
</svg>
