<svg width="39" height="39" viewBox="0 0 39 39" fill="none" xmlns="http://www.w3.org/2000/svg">
<path d="M19.1771 23.2604L4.88542 37.5521C4.35069 38.0868 3.67014 38.3542 2.84375 38.3542C2.01736 38.3542 1.3368 38.0868 0.802082 37.5521C0.26736 37.0174 0 36.3368 0 35.5104C0 34.684 0.26736 34.0035 0.802082 33.4688L15.0938 19.1771L0.802082 4.88542C0.26736 4.35069 0 3.67014 0 2.84375C0 2.01736 0.26736 1.3368 0.802082 0.802082C1.3368 0.26736 2.01736 0 2.84375 0C3.67014 0 4.35069 0.26736 4.88542 0.802082L19.1771 15.0938L33.4688 0.802082C34.0035 0.26736 34.684 0 35.5104 0C36.3368 0 37.0174 0.26736 37.5521 0.802082C38.0868 1.3368 38.3542 2.01736 38.3542 2.84375C38.3542 3.67014 38.0868 4.35069 37.5521 4.88542L23.2604 19.1771L37.5521 33.4688C38.0868 34.0035 38.3542 34.684 38.3542 35.5104C38.3542 36.3368 38.0868 37.0174 37.5521 37.5521C37.0174 38.0868 36.3368 38.3542 35.5104 38.3542C34.684 38.3542 34.0035 38.0868 33.4688 37.5521L19.1771 23.2604Z" fill="#344E39"/>
</svg>
