<svg width="68" height="73" viewBox="0 0 68 73" fill="none" xmlns="http://www.w3.org/2000/svg">
<path d="M9.06667 0C4.06583 0 0 4.09199 0 9.125V63.875C0 68.908 4.06583 73 9.06667 73H49.8667C54.8675 73 58.9333 68.908 58.9333 63.875V9.125C58.9333 4.09199 54.8675 0 49.8667 0H9.06667ZM24.9333 41.0625H34C40.2617 41.0625 45.3333 46.1668 45.3333 52.4688C45.3333 53.7234 44.3133 54.75 43.0667 54.75H15.8667C14.62 54.75 13.6 53.7234 13.6 52.4688C13.6 46.1668 18.6717 41.0625 24.9333 41.0625ZM20.4 27.375C20.4 24.9549 21.3552 22.6339 23.0556 20.9227C24.7559 19.2114 27.062 18.25 29.4667 18.25C31.8713 18.25 34.1774 19.2114 35.8778 20.9227C37.5781 22.6339 38.5333 24.9549 38.5333 27.375C38.5333 29.7951 37.5781 32.1161 35.8778 33.8273C34.1774 35.5386 31.8713 36.5 29.4667 36.5C27.062 36.5 24.7559 35.5386 23.0556 33.8273C21.3552 32.1161 20.4 29.7951 20.4 27.375ZM68 11.4062C68 10.1516 66.98 9.125 65.7333 9.125C64.4867 9.125 63.4667 10.1516 63.4667 11.4062V20.5312C63.4667 21.7859 64.4867 22.8125 65.7333 22.8125C66.98 22.8125 68 21.7859 68 20.5312V11.4062ZM65.7333 27.375C64.4867 27.375 63.4667 28.4016 63.4667 29.6562V38.7812C63.4667 40.0359 64.4867 41.0625 65.7333 41.0625C66.98 41.0625 68 40.0359 68 38.7812V29.6562C68 28.4016 66.98 27.375 65.7333 27.375ZM68 47.9062C68 46.6516 66.98 45.625 65.7333 45.625C64.4867 45.625 63.4667 46.6516 63.4667 47.9062V57.0312C63.4667 58.2859 64.4867 59.3125 65.7333 59.3125C66.98 59.3125 68 58.2859 68 57.0312V47.9062Z" fill="#2C442F"/>
</svg>
