<svg width="59" height="70" viewBox="0 0 59 70" fill="none" xmlns="http://www.w3.org/2000/svg">
<path d="M44.9583 21.0314V27.948H48.4167C54.1466 27.948 58.7917 32.5931 58.7917 38.323V41.7814C58.7917 47.5113 54.1466 52.1564 48.4167 52.1564L44.9583 52.1563V55.6147C44.9583 63.2548 38.7649 69.4481 31.125 69.4481H13.8333C6.19339 69.4481 0 63.2548 0 55.6147V21.0314H44.9583ZM38.0417 27.9481H6.91672V55.6147C6.91672 59.261 9.73823 62.2484 13.3171 62.5125L13.8333 62.5314H31.125C34.9449 62.5314 38.0417 59.4346 38.0417 55.6147V27.9481ZM48.4167 34.8647H44.9583V45.2397H48.4167C50.3267 45.2397 51.875 43.6914 51.875 41.7814V38.3231C51.875 36.413 50.3267 34.8647 48.4167 34.8647ZM9.8817 0C13.4616 2.06689 14.6881 6.64438 12.6213 10.2242C11.9869 11.3229 12.3634 12.7277 13.462 13.362L10.8683 17.8544C7.28844 15.7878 6.06176 11.2102 8.12865 7.63049C8.76315 6.53187 8.38657 5.12703 7.28795 4.4927L9.8817 0ZM20.2567 0C23.8366 2.06689 25.0631 6.64438 22.9963 10.2242C22.362 11.3229 22.7384 12.7277 23.837 13.362L21.2433 17.8544C17.6634 15.7878 16.4368 11.2102 18.5037 7.63049C19.138 6.53187 18.7616 5.12703 17.663 4.4927L20.2567 0ZM30.6317 0C34.2116 2.06689 35.4381 6.64438 33.3713 10.2242C32.737 11.3229 33.1134 12.7277 34.212 13.362L31.6183 17.8544C28.0384 15.7878 26.8118 11.2102 28.8787 7.63049C29.513 6.53187 29.1366 5.12703 28.038 4.4927L30.6317 0Z" fill="#2C442F"/>
<rect x="5.70801" y="26.3649" width="34" height="37" fill="#2C442F"/>
<rect x="44.708" y="32.3649" width="8" height="15" fill="#2C442F"/>
</svg>
