<svg width="51" height="56" viewBox="0 0 51 56" fill="none" xmlns="http://www.w3.org/2000/svg">
<path d="M22.667 1H28.333C33.703 1 37.6312 1.00262 40.6357 1.40234C43.6127 1.79841 45.5333 2.56811 46.9766 3.99316C48.4178 5.41623 49.1941 7.30927 49.5938 10.2461C49.9975 13.2128 50 17.0926 50 22.4004V33.5996C50 38.9073 49.9969 42.7865 49.5928 45.7529C49.1927 48.6893 48.417 50.5831 46.9766 52.0078C45.5349 53.4337 43.6142 54.2029 40.6367 54.5986C37.6318 54.998 33.703 55 28.333 55H22.667C17.297 55 13.3688 54.9974 10.3643 54.5977C7.38727 54.2016 5.46674 53.4319 4.02344 52.0068C2.5822 50.5838 1.80594 48.6907 1.40625 45.7539C1.00253 42.7872 1 38.9074 1 33.5996V22.4004C1 17.0926 1.00253 13.2128 1.40625 10.2461C1.80594 7.30927 2.5822 5.41623 4.02344 3.99316V3.99219C5.46508 2.56629 7.38583 1.79711 10.3633 1.40137C13.3682 1.00201 17.297 1 22.667 1ZM14.167 30.5C13.342 30.5 12.5479 30.8234 11.9609 31.4033C11.3737 31.9837 11.0421 32.7737 11.042 33.5996C11.042 34.4255 11.3738 35.2155 11.9609 35.7959C12.5479 36.3759 13.342 36.7002 14.167 36.7002H28.333C29.158 36.7002 29.9521 36.3759 30.5391 35.7959C31.1262 35.2155 31.458 34.4255 31.458 33.5996C31.4579 32.7737 31.1263 31.9837 30.5391 31.4033C29.9521 30.8234 29.158 30.5 28.333 30.5H14.167ZM14.167 19.2998C13.342 19.2998 12.5479 19.6241 11.9609 20.2041C11.3738 20.7845 11.042 21.5745 11.042 22.4004C11.0421 23.2263 11.3737 24.0163 11.9609 24.5967C12.5479 25.1766 13.342 25.5 14.167 25.5H36.833C37.658 25.5 38.4521 25.1766 39.0391 24.5967C39.6263 24.0163 39.9579 23.2263 39.958 22.4004C39.958 21.5745 39.6262 20.7845 39.0391 20.2041C38.4521 19.6241 37.658 19.2998 36.833 19.2998H14.167Z" fill="#54675B" stroke="#344E39" stroke-width="2"/>
</svg>
